name rise38.3101peak57.3503fall81.6963.mot
datacolumns 19
datarows 26
range 12.14330700000000 12.18495700000000
endheader
time	ground_force1_vx	ground_force1_vy	ground_force1_vz	ground_force1_px	ground_force1_py	ground_force1_pz	ground_force2_vx	ground_force2_vy	ground_force2_vz	ground_force2_px	ground_force2_py	ground_force2_pz	ground_torque1_x	ground_torque1_y	ground_torque1_z	ground_torque2_x	ground_torque2_y	ground_torque2_z	
12.14330700000000	-3.31551500000000	41.15924000000000	-7.41136900000000	0.35916300000000	0.00000000000000	0.07776700000000	-59.47127200000000	807.91548200000000	-51.22222000000000	0.15395200000000	0.00000000000000	-0.09893500000000	0.00000000000000	-5.97784900000000	0.00000000000000	0.00000000000000	-27.66503300000000	0.00000000000000	
12.14495800000000	-3.64567800000000	48.02497100000000	-8.34041800000000	0.36346700000000	0.00000000000000	0.07877900000000	-60.20645200000000	806.00673300000005	-50.80923000000000	0.15310200000000	0.00000000000000	-0.09884700000000	0.00000000000000	-6.77275800000000	0.00000000000000	0.00000000000000	-27.60395500000000	0.00000000000000	
12.14662700000000	-3.90992200000000	54.92491500000000	-9.18656100000000	0.36741100000000	0.00000000000000	0.07971400000000	-60.94145700000000	803.96078699999998	-50.37212800000000	0.15225900000000	0.00000000000000	-0.09875500000000	0.00000000000000	-7.50974600000000	0.00000000000000	0.00000000000000	-27.53893500000000	0.00000000000000	
12.14829000000000	-4.09683200000000	61.76773900000000	-9.93006100000000	0.37104500000000	0.00000000000000	0.08058100000000	-61.67569700000000	801.77490599999999	-49.91071800000000	0.15142200000000	0.00000000000000	-0.09865900000000	0.00000000000000	-8.17217900000000	0.00000000000000	0.00000000000000	-27.46990400000000	0.00000000000000	
12.14995500000000	-4.19841000000000	68.48647600000000	-10.55772700000000	0.37440700000000	0.00000000000000	0.08138900000000	-62.40853800000000	799.44635800000003	-49.42484500000000	0.15059200000000	0.00000000000000	-0.09855800000000	0.00000000000000	-8.74869500000000	0.00000000000000	0.00000000000000	-27.39678900000000	0.00000000000000	
12.15162700000000	-4.21011600000000	75.04039899999999	-11.06301300000000	0.37753200000000	0.00000000000000	0.08214500000000	-63.13929800000000	796.97241299999996	-48.91439500000000	0.14977000000000	0.00000000000000	-0.09845300000000	0.00000000000000	-9.23337000000000	0.00000000000000	0.00000000000000	-27.31951700000000	0.00000000000000	
12.15328900000000	-4.13064000000000	81.41442600000001	-11.44555900000000	0.38044800000000	0.00000000000000	0.08285500000000	-63.86724800000000	794.35035500000004	-48.37929900000000	0.14895500000000	0.00000000000000	-0.09834200000000	0.00000000000000	-9.62540100000000	0.00000000000000	0.00000000000000	-27.23800800000000	0.00000000000000	
12.15496200000000	-3.96145400000000	87.61649800000001	-11.71030300000000	0.38317800000000	0.00000000000000	0.08352400000000	-64.59161100000000	791.57748000000004	-47.81953400000000	0.14814800000000	0.00000000000000	-0.09822700000000	0.00000000000000	-9.92842600000000	0.00000000000000	0.00000000000000	-27.15218300000000	0.00000000000000	
12.15662500000000	-3.70621900000000	93.67352500000000	-11.86631800000000	0.38574300000000	0.00000000000000	0.08415600000000	-65.31156400000000	788.65110100000004	-47.23512400000000	0.14734900000000	0.00000000000000	-0.09810800000000	0.00000000000000	-10.14958600000000	0.00000000000000	0.00000000000000	-27.06195700000000	0.00000000000000	
12.15828900000000	-3.37013700000000	99.62645500000001	-11.92550300000000	0.38815800000000	0.00000000000000	0.08475500000000	-66.02623300000000	785.56855499999995	-46.62614400000000	0.14655900000000	0.00000000000000	-0.09798300000000	0.00000000000000	-10.29847200000000	0.00000000000000	0.00000000000000	-26.96724400000000	0.00000000000000	
12.15996000000000	-2.95929300000000	105.52505300000000	-11.90128100000000	0.39044000000000	0.00000000000000	0.08532400000000	-66.73469600000000	782.32720600000005	-45.99272000000000	0.14577700000000	0.00000000000000	-0.09785300000000	0.00000000000000	-10.38603500000000	0.00000000000000	0.00000000000000	-26.86795600000000	0.00000000000000	
12.16162200000000	-2.48004800000000	111.42284200000000	-11.80739500000000	0.39259900000000	0.00000000000000	0.08586500000000	-67.43598500000000	778.92445399999997	-45.33503200000000	0.14500500000000	0.00000000000000	-0.09771900000000	0.00000000000000	-10.42358600000000	0.00000000000000	0.00000000000000	-26.76400000000000	0.00000000000000	
12.16329200000000	-1.93853600000000	117.37260700000000	-11.65688600000000	0.39464800000000	0.00000000000000	0.08638100000000	-68.12908000000000	775.35773500000005	-44.65331300000000	0.14424300000000	0.00000000000000	-0.09757900000000	0.00000000000000	-10.42193000000000	0.00000000000000	0.00000000000000	-26.65528400000000	0.00000000000000	
12.16496200000000	-1.34025900000000	123.42268700000000	-11.46130000000000	0.39659500000000	0.00000000000000	0.08687400000000	-68.81291500000000	771.62453500000004	-43.94785500000000	0.14349000000000	0.00000000000000	-0.09743400000000	0.00000000000000	-10.39068400000000	0.00000000000000	0.00000000000000	-26.54170900000000	0.00000000000000	
12.16662600000000	-0.68982800000000	129.61423600000001	-11.23015400000000	0.39844900000000	0.00000000000000	0.08734600000000	-69.48637800000000	767.72239200000001	-43.21900500000000	0.14274700000000	0.00000000000000	-0.09728400000000	0.00000000000000	-10.33780700000000	0.00000000000000	0.00000000000000	-26.42317800000000	0.00000000000000	
12.16829500000000	0.00918800000000	135.97946400000001	-10.97063700000000	0.40021600000000	0.00000000000000	0.08779900000000	-70.14830900000000	763.64891100000000	-42.46716900000000	0.14201500000000	0.00000000000000	-0.09712900000000	0.00000000000000	-10.26933500000000	0.00000000000000	0.00000000000000	-26.29958900000000	0.00000000000000	
12.16995600000000	0.75429000000000	142.54083100000000	-10.68755200000000	0.40190300000000	0.00000000000000	0.08823300000000	-70.79750400000000	759.40176599999995	-41.69281000000000	0.14129400000000	0.00000000000000	-0.09696900000000	0.00000000000000	-10.18930500000000	0.00000000000000	0.00000000000000	-26.17084000000000	0.00000000000000	
12.17162300000000	1.54397900000000	149.31107600000001	-10.38344100000000	0.40351400000000	0.00000000000000	0.08865000000000	-71.43271500000000	754.97871299999997	-40.89645300000000	0.14058400000000	0.00000000000000	-0.09680300000000	0.00000000000000	-10.09984800000000	0.00000000000000	0.00000000000000	-26.03682600000000	0.00000000000000	
12.17328900000000	2.37762700000000	156.29392600000000	-10.05885500000000	0.40505500000000	0.00000000000000	0.08905200000000	-72.05265199999999	750.37760400000002	-40.07867900000000	0.13988600000000	0.00000000000000	-0.09663300000000	0.00000000000000	-10.00139800000000	0.00000000000000	0.00000000000000	-25.89744200000000	0.00000000000000	
12.17495500000000	3.25528000000000	163.48531199999999	-9.71272600000000	0.40653000000000	0.00000000000000	0.08943800000000	-72.65598600000000	745.59639600000003	-39.24013100000000	0.13919900000000	0.00000000000000	-0.09645700000000	0.00000000000000	-9.89299900000000	0.00000000000000	0.00000000000000	-25.75258000000000	0.00000000000000	
12.17662400000000	4.17745000000000	170.87489700000000	-9.34279600000000	0.40794100000000	0.00000000000000	0.08981100000000	-73.24135200000001	740.63316099999997	-38.38151100000000	0.13852400000000	0.00000000000000	-0.09627500000000	0.00000000000000	-9.77265200000000	0.00000000000000	0.00000000000000	-25.60213100000000	0.00000000000000	
12.17829500000000	5.14489600000000	178.44775200000001	-8.94605000000000	0.40929200000000	0.00000000000000	0.09017000000000	-73.80734800000000	735.48610599999995	-37.50357600000000	0.13786200000000	0.00000000000000	-0.09608900000000	0.00000000000000	-9.63768100000000	0.00000000000000	0.00000000000000	-25.44598800000000	0.00000000000000	
12.17996100000000	6.15841300000000	186.18603100000001	-8.51913000000000	0.41058600000000	0.00000000000000	0.09051700000000	-74.35254100000000	730.15358100000003	-36.60714300000000	0.13721200000000	0.00000000000000	-0.09589700000000	0.00000000000000	-9.48508300000000	0.00000000000000	0.00000000000000	-25.28404200000000	0.00000000000000	
12.18162900000000	7.21865500000000	194.07051100000001	-8.05870400000000	0.41182400000000	0.00000000000000	0.09085200000000	-74.87547200000000	724.63409300000001	-35.69308400000000	0.13657500000000	0.00000000000000	-0.09569900000000	0.00000000000000	-9.31183400000000	0.00000000000000	0.00000000000000	-25.11618300000000	0.00000000000000	
12.18329600000000	8.32598600000000	202.08192399999999	-7.56176200000000	0.41300900000000	0.00000000000000	0.09117600000000	-75.37465400000001	718.92632500000002	-34.76232500000000	0.13595100000000	0.00000000000000	-0.09549700000000	0.00000000000000	-9.11514800000000	0.00000000000000	0.00000000000000	-24.94230400000000	0.00000000000000	
12.18495700000000	9.48037000000000	210.20201200000000	-7.02583900000000	0.41414300000000	0.00000000000000	0.09148900000000	-75.84857800000000	713.02914299999998	-33.81584800000000	0.13534000000000	0.00000000000000	-0.09528900000000	0.00000000000000	-8.89266600000000	0.00000000000000	0.00000000000000	-24.76229700000000	0.00000000000000	
